<svg width="546" height="161" viewBox="0 0 546 161" fill="none" xmlns="http://www.w3.org/2000/svg">
    <path
        d="M195.649 49.0735C194.472 48.8381 193.295 48.3673 191.882 48.3673C187.881 48.3673 186.704 50.2505 186.704 51.6629C186.704 53.5462 188.116 54.017 189.999 54.4878L193.53 55.194C197.767 56.1356 202.475 57.3126 202.475 62.7268C202.475 67.6703 198.709 71.2013 190.705 71.2013C187.645 71.2013 184.349 70.9659 180.348 69.7889V62.9622H186.233V66.4933C187.645 66.9641 189.293 67.1995 191.176 67.1995C194.707 67.1995 196.355 65.7871 196.355 63.6685C196.355 62.256 195.649 61.3144 191.647 60.3728L188.587 59.6666C182.702 58.2542 180.583 56.1356 180.583 52.1337C180.583 47.8965 183.879 44.3655 191.882 44.3655C195.413 44.3655 198.944 44.8363 201.298 45.7779V51.8983H195.884V49.0735H195.649Z"
        fill="black" />
    <path
        d="M218.012 50.2505C224.839 50.2505 229.547 54.0169 229.547 60.8436C229.547 67.6703 224.839 71.4367 218.012 71.4367C211.185 71.4367 206.477 67.6703 206.477 60.8436C206.477 54.0169 211.421 50.2505 218.012 50.2505ZM218.012 67.6702C220.837 67.6702 223.662 66.0224 223.662 61.079C223.662 56.1355 221.072 54.4877 218.012 54.4877C215.187 54.4877 212.362 56.1355 212.362 61.079C212.598 65.787 215.187 67.6702 218.012 67.6702Z"
        fill="black" />
    <path
        d="M235.667 54.2525H233.313V50.7214H243.671V54.2525H241.317V64.1394C241.317 66.258 242.729 67.6704 245.79 67.6704C249.085 67.6704 250.027 65.5518 250.027 63.904V54.4879H247.673V50.7214H257.56V54.2525H255.206V62.4916C255.206 67.435 253.322 71.4368 245.554 71.4368C239.904 71.4368 235.667 69.3182 235.667 65.3164V54.2525Z"
        fill="black" />
    <path
        d="M267.682 54.2525H264.386L264.151 56.8419H259.914L260.149 50.7214H280.864L281.1 56.8419H276.863L276.627 54.2525H273.331V67.435H275.921V70.966H265.328V67.435H267.917V54.2525H267.682Z"
        fill="black" />
    <path
        d="M286.514 54.2525H284.16V50.7214H294.518V54.2525H292.164V58.9605H300.403V54.2525H298.049V50.7214H308.407V54.2525H306.053V67.435H308.407V70.966H298.049V67.435H300.403V62.4915H292.164V67.435H294.518V70.966H284.16V67.435H286.514V54.2525Z"
        fill="black" />
    <path
        d="M328.18 48.8382H325.12V45.0718H338.538C348.19 45.0718 353.839 49.309 353.839 57.5481C353.839 65.5518 348.19 71.2014 338.773 71.2014H325.12V67.435H328.18V48.8382ZM337.596 67.435C342.54 67.435 347.248 64.8456 347.248 57.7835C347.248 51.1922 342.775 49.0736 337.361 49.0736H334.065V67.435H337.596Z"
        fill="black" />
    <path
        d="M365.374 50.7214H371.494L379.027 67.435H381.146V70.966H370.788V67.435H372.671L371.494 64.3748H364.197L363.02 67.435H364.903V70.966H355.251V67.435H357.135L365.374 50.7214ZM370.317 60.8437L367.963 54.7233L365.609 60.8437H370.317Z"
        fill="black" />
    <path
        d="M386.56 54.2525H384.206V50.7214H394.328V54.2525H392.21V60.1375L399.507 54.2525H397.389V50.7214H407.275V54.2525H405.628L397.859 60.6083L405.863 67.6704H407.746V71.2014H397.389V67.6704H399.272L392.445 61.7853V67.6704H394.564V71.2014H384.441V67.6704H386.795V54.2525H386.56Z"
        fill="black" />
    <path
        d="M422.341 50.2505C429.168 50.2505 433.876 54.0169 433.876 60.8436C433.876 67.6703 429.168 71.4367 422.341 71.4367C415.514 71.4367 410.806 67.6703 410.806 60.8436C410.806 54.0169 415.514 50.2505 422.341 50.2505ZM422.341 67.6702C425.166 67.6702 427.991 66.0224 427.991 61.079C427.991 56.1355 425.401 54.4877 422.341 54.4877C419.516 54.4877 416.691 56.1355 416.691 61.079C416.691 65.787 419.516 67.6702 422.341 67.6702Z"
        fill="black" />
    <path
        d="M444.469 54.2525H441.173L440.938 56.8419H436.701L436.936 50.7214H457.652L457.887 56.8419H453.65L453.414 54.2525H450.119V67.435H452.708V70.966H442.115V67.435H444.704V54.2525H444.469Z"
        fill="black" />
    <path
        d="M469.422 50.7214H475.542L483.075 67.435H485.194V70.966H475.071V67.435H476.954L475.777 64.3748H468.48L467.303 67.435H469.186V70.966H459.535V67.435H461.418L469.422 50.7214ZM474.365 60.8437L472.011 54.7233L469.657 60.8437H474.365Z"
        fill="black" />
    <path
        d="M195.649 93.7998C194.472 93.5644 193.295 93.0936 191.882 93.0936C187.881 93.0936 186.704 94.9769 186.704 96.3893C186.704 98.2725 188.116 98.7433 189.999 99.2141L193.53 99.9203C197.767 100.862 202.475 102.039 202.475 107.453C202.475 112.397 198.709 115.928 190.705 115.928C187.645 115.928 184.349 115.692 180.348 114.515V107.689H186.233V111.22C187.645 111.69 189.293 111.926 191.176 111.926C194.707 111.926 196.355 110.513 196.355 108.395C196.355 106.982 195.649 106.041 191.647 105.099L188.587 104.393C182.702 102.981 180.583 100.862 180.583 96.8601C180.583 92.6228 183.879 89.0918 191.882 89.0918C195.413 89.0918 198.944 89.5626 201.298 90.5042V96.6247H195.884V93.7998H195.649Z"
        fill="black" />
    <path
        d="M213.539 98.9788H210.244L210.008 101.568H205.771L206.006 95.4478H226.722L226.957 101.568H222.72L222.485 98.9788H219.189V112.161H221.778V115.692H211.185V112.161H213.775V98.9788H213.539Z"
        fill="black" />
    <path
        d="M238.492 95.4478H244.612L252.145 112.161H254.264V115.692H243.906V112.161H245.789L244.612 109.101H237.315L236.138 112.161H238.021V115.692H228.37V112.161H230.253L238.492 95.4478ZM243.435 105.57L241.081 99.4496L238.727 105.57H243.435Z"
        fill="black" />
    <path
        d="M262.268 98.9788H258.972L258.737 101.568H254.499L254.735 95.4478H275.45L275.685 101.568H271.448L271.213 98.9788H267.917V112.161H270.507V115.692H259.914V112.161H262.503V98.9788H262.268Z"
        fill="black" />
    <path
        d="M281.1 98.9788H278.746V95.4478H296.401L296.872 101.568H292.635L292.164 98.9788H286.75V103.687H292.635V107.218H286.75V112.161H292.164L292.635 109.101H297.107L296.401 115.692H278.981V112.161H281.1V98.9788Z"
        fill="black" />
    <path
        d="M331.24 89.7981H342.304V93.5645H339.715V105.57C339.715 113.574 335.948 116.399 327.474 116.399C318.058 116.399 315.939 112.632 315.939 106.982V93.7999H313.35V90.0335H324.414V93.7999H322.06V106.041C322.06 109.807 323.237 112.161 327.945 112.161C331.711 112.161 334.301 110.984 334.301 106.041V93.7999H331.24V89.7981Z"
        fill="black" />
    <path
        d="M348.189 98.9788H345.835V95.4478H353.604L363.491 107.689V98.9788H361.137V95.4478H370.788V98.9788H368.669V115.692H363.961L353.368 102.745V112.161H355.722V115.692H346.071V112.161H348.189V98.9788Z"
        fill="black" />
    <path
        d="M376.908 98.9788H374.554V95.4478H384.912V98.9788H382.558V112.161H384.912V115.692H374.554V112.161H376.908V98.9788Z"
        fill="black" />
    <path
        d="M389.856 98.9788H387.972V95.4478H398.33V98.9788H396.447L401.155 111.22L406.098 98.9788H403.98V95.4478H413.867V98.9788H411.983L403.744 115.692H398.095L389.856 98.9788Z"
        fill="black" />
    <path
        d="M419.046 98.9788H416.692V95.4478H434.347L434.818 101.568H430.58L430.11 98.9788H424.695V103.687H430.58V107.218H424.695V112.161H430.11L430.58 109.101H435.053L434.347 115.692H416.927V112.161H419.046V98.9788Z"
        fill="black" />
    <path
        d="M441.409 98.9788H439.055V95.4478H450.354C454.827 95.4478 457.181 97.5664 457.181 100.862C457.181 103.216 455.768 105.57 451.296 106.276C453.65 106.512 454.356 106.982 455.298 108.395L457.652 111.691C457.887 111.926 458.358 112.161 459.064 112.161C459.299 112.161 459.535 112.161 459.77 111.926V115.692H455.768C453.885 115.692 453.179 115.222 452.237 113.574L449.177 108.395C448.471 107.453 448 107.218 446.588 107.218V111.926H448.235V115.457H438.584V111.926H440.938V98.9788H441.409ZM446.823 98.9788V103.922H448.235C450.354 103.922 451.531 102.981 451.531 101.333C451.531 99.4496 450.59 98.9788 448.235 98.9788H446.823Z"
        fill="black" />
    <path
        d="M474.6 101.097V99.2142C473.659 98.7434 472.246 98.7434 471.305 98.7434C468.951 98.7434 468.245 99.9204 468.245 101.097C468.245 104.628 480.25 101.804 480.25 109.807C480.25 114.751 475.307 116.634 470.363 116.634C468.009 116.634 465.184 116.399 462.83 115.692L462.595 110.043H467.303L467.538 112.397C468.48 112.868 469.892 113.103 471.069 113.103C473.188 113.103 474.6 111.691 474.6 110.514C474.6 106.747 462.595 109.807 462.595 102.039C462.595 98.2726 465.655 95.2124 472.246 95.2124C474.6 95.2124 476.719 95.6832 479.073 96.3894V101.333H474.6V101.097Z"
        fill="black" />
    <path
        d="M486.606 98.9788H484.252V95.4478H494.61V98.9788H492.256V112.161H494.61V115.692H484.252V112.161H486.606V98.9788Z"
        fill="black" />
    <path
        d="M505.438 98.9788H502.143L501.907 101.568H497.67L497.905 95.4478H518.621L518.856 101.568H514.619L514.383 98.9788H511.088V112.161H513.677V115.692H503.084V112.161H505.674V98.9788H505.438Z"
        fill="black" />
    <path
        d="M520.504 95.4478H531.097V98.9788H529.214L533.216 104.158L536.982 98.9788H534.863V95.4478H544.75V98.9788H543.103L535.57 107.924V112.397H538.159V115.928H527.566V112.397H530.155V107.924L522.387 98.9788H520.739V95.4478H520.504Z"
        fill="black" />
    <path
        d="M30.1608 159.948V158.065V154.534V153.592L29.9254 136.879L8.50381 143.234L7.5622 143.47L4.50196 144.411L2.85416 144.882V142.999V139.468V138.526V112.397V112.161V111.455V110.984L3.08955 110.749L3.56036 110.043V109.807L7.5622 103.451L7.7976 103.216L8.2684 102.51L8.50381 102.039L8.97461 101.804L9.91622 101.568H10.1516L11.0932 101.333H11.3286L12.5056 101.097L13.6827 100.627C5.67898 97.5664 1.44174 90.5043 0.735531 79.9112C0.0293243 69.7889 2.14795 64.8455 4.03117 60.3728L4.50196 59.4312C10.1516 47.6611 20.7447 38.4804 29.2192 34.2432V32.5954V19.1774V18.942V18.0004V17.5296L29.4546 17.2942L29.9254 16.588L30.1608 16.3526L34.6335 9.99674L35.1043 9.29055L35.3397 9.05515L35.8105 8.81973L36.5167 8.58433H36.7521L37.4583 8.34893H37.6937L38.6353 7.87814C40.0477 7.40733 51.8178 2.93468 68.7668 1.52226C71.5916 1.28686 74.6519 1.28687 77.4767 1.28687C81.0077 1.28687 84.5387 1.52226 87.8344 1.75766C88.776 1.75766 109.021 3.87628 111.139 30.0059C113.729 30.9475 121.026 33.3016 122.909 33.7724C124.322 34.2432 129.265 36.1264 137.033 38.7158L137.504 38.9512L137.975 39.1866L139.623 39.8928L140.564 40.1282V41.0699V42.9531V43.4239V44.3655V44.6009V45.7779L140.329 65.0809V67.1995V67.6703V69.3181V69.5535V70.4951V70.9659L140.094 71.2013L139.623 71.9076L139.387 72.143L135.15 78.2634L134.915 78.7342L133.973 80.1466C137.033 84.1485 139.152 88.1503 140.094 92.3876C141.742 99.2142 141.977 109.807 138.21 117.576V117.811V118.046C136.798 121.107 132.325 130.287 122.203 133.348C119.378 134.289 116.318 134.76 112.787 134.76C111.61 134.76 110.198 134.76 109.021 134.525C107.373 137.82 103.371 145.588 98.1921 148.884C93.7194 151.709 89.7176 152.18 87.599 152.18C86.8928 152.18 86.1866 152.18 85.9512 152.18H85.7158H85.245C83.3617 151.944 79.8307 151.709 75.358 151.709C73.7102 151.709 71.827 151.709 70.1792 151.944C60.2923 152.651 51.347 154.063 43.3433 156.652L41.4601 157.359L40.9893 157.594L39.5769 158.065L36.9875 158.771L36.0459 159.006L32.9856 159.948H30.1608Z"
        fill="white" />
    <path
        d="M136.092 93.0937C134.444 86.0317 129.03 78.9696 120.084 72.3783L131.148 75.9094L131.619 76.1448L131.855 75.674L136.092 69.5535L136.327 69.3181V69.0827V67.4349V66.9641V64.8455L136.563 45.5425V44.3655V44.13V43.1885V42.7176L136.092 42.4822C135.856 42.4822 124.086 38.245 121.497 37.3034C119.378 36.5972 109.491 33.3016 107.373 32.5954C106.667 7.1719 88.0698 5.52407 87.3636 5.28867C84.068 5.05327 80.7723 4.81787 77.4767 4.81787C74.6519 4.81787 71.827 4.81787 69.0022 5.05327C52.2886 6.23028 40.5185 10.9383 40.0477 11.1737L39.1061 11.6445H38.8707L38.1645 11.8799H37.9291L37.6937 12.1153L33.2211 18.7066L32.9856 18.942V19.1774V32.5954V36.8326C23.805 40.8344 16.9783 46.0133 13.2119 52.8399L12.9764 53.0753C12.741 53.5461 12.5057 53.7815 12.2702 54.4878C11.7994 54.9586 8.97461 58.4896 7.7976 60.8436L7.3268 61.7852C5.44358 66.2579 3.79576 70.2597 4.26657 79.4404C4.97277 92.3875 11.7994 98.508 25.2174 98.508C27.336 98.508 29.9254 98.508 32.2794 98.2726C35.1043 98.0372 39.1061 97.0956 39.1061 97.0956L38.1645 97.331L37.6937 97.5664L35.8105 98.0372L13.2119 104.628L12.0349 104.864H11.7994L10.8578 105.099H10.6224L10.387 105.335L6.38519 111.691V111.926V112.161V138.291V139.233L7.3268 138.997L33.4565 131.229V131.464L33.6919 153.121V154.063L34.6335 153.828L36.9875 153.121L38.3999 152.651L38.8707 152.415L40.7539 151.709C49.2284 149.119 58.1737 147.472 68.5314 146.765C70.4146 146.765 72.0624 146.53 73.9456 146.53C78.6537 146.53 82.4201 147.001 84.3034 147.001H84.7741H85.0096H85.245H85.4804C85.4804 147.001 85.9512 147.001 86.6574 147.001C88.3052 147.001 91.6008 146.765 95.1319 144.176C100.075 141.116 104.548 131.935 105.725 128.875C106.667 129.11 109.021 129.346 111.845 129.346C114.906 129.346 117.966 128.875 120.32 128.169C129.03 125.344 132.796 117.34 134.209 114.751C134.209 114.515 134.444 114.28 134.444 114.28C137.74 109.336 137.74 99.685 136.092 93.0937ZM65.2358 56.8418C65.2358 56.8418 71.3562 55.6648 84.068 56.8418V62.0206C84.068 62.0206 73.4749 61.3144 65.2358 62.9622V56.8418ZM65.2358 96.3894V90.2689C65.2358 90.2689 71.3562 89.3273 84.068 90.7397V95.9186C84.3034 95.9186 73.7103 94.977 65.2358 96.3894Z"
        fill="#002B5C" />
    <path
        d="M134.679 93.8C132.561 84.8547 124.557 77.5572 118.201 73.0846C113.258 69.5535 106.902 68.1411 106.667 67.9057L105.96 67.6703V52.6046C107.608 53.0754 109.256 53.5462 110.904 54.2524L111.139 58.0188V59.1958V59.4312H111.375L112.316 59.6666L132.325 66.2579L134.209 66.9641L134.679 67.1995V66.7287V64.6101L134.915 45.3071V44.1301V43.8947H134.679L133.738 43.4239C133.502 43.4239 115.376 36.8326 105.96 34.0078V33.537C105.725 9.05512 88.5406 7.40731 87.8343 7.40731C81.9493 6.93651 75.8288 6.70111 69.7084 7.17191C53.2302 8.34892 41.6955 13.057 41.2247 13.057L40.2831 13.5278H40.0477V13.7632V14.9402V29.5351V31.6538V32.1246H40.5185L42.4017 31.6538L46.4035 30.7121V35.1848L44.9911 35.4202C30.6316 38.9512 20.5093 45.3071 15.5658 54.017C11.564 60.8436 10.6224 69.0827 12.2702 78.4988C13.918 87.2087 21.4509 91.2105 33.9272 90.2689C37.4582 90.0335 39.8123 89.3273 40.0477 89.3273C40.5185 89.0919 41.4601 88.8565 42.6371 88.6211H42.8725C43.8141 88.3857 44.7557 88.1503 45.9327 87.6795V102.745L44.5203 103.216L39.8123 104.628V102.274V100.156V99.685L39.3415 99.9204L37.2228 100.156L14.6242 106.747L13.4472 106.982H13.2118V107.218V108.395V127.933V130.052V130.523L13.6826 130.287L15.5658 129.817L45.4619 121.107L45.9327 120.871V124.402L41.4601 125.815L40.2831 126.05H40.0477V127.462V142.293V144.411V144.882L40.5185 144.647L42.4017 143.941C51.8178 141.116 61.2339 139.233 70.4146 138.526C79.5953 137.82 86.1865 138.526 88.3051 138.762C88.5405 138.762 88.776 138.762 89.0114 138.762C89.953 138.762 90.8946 138.762 91.8362 138.762C96.0734 138.526 99.6045 136.643 101.958 133.348C105.254 128.875 105.254 122.048 105.019 119.694C109.962 121.107 114.435 121.813 118.201 121.342C121.732 121.107 125.028 120.165 128.324 118.282C136.327 115.222 136.327 101.568 134.679 93.8ZM63.5879 49.7797L64.2941 49.5443C64.7649 49.5443 67.1189 49.0735 70.8854 48.6027C75.1226 48.3673 81.7139 48.1319 89.4822 49.0735V49.5443V64.3747C84.3033 63.4331 78.6537 63.4331 72.0624 63.9039C69.2376 64.1393 66.1773 64.3747 63.3525 64.8455L63.5879 49.7797ZM40.0477 70.4951C40.2831 64.6101 40.5185 58.0188 40.2831 55.194L45.6973 53.7816L46.1681 53.5462V68.3765V68.6119C43.5787 69.3181 41.4601 70.0243 40.0477 70.4951ZM89.4822 116.869V120.4C82.8909 119.694 76.535 119.459 70.1792 120.165C67.3543 120.4 65.0003 120.636 63.5879 120.871V116.634C65.2357 116.399 66.8835 116.163 68.5314 116.163C77.0059 115.457 84.3033 115.928 89.7176 116.634L89.4822 116.869ZM69.9438 97.8018C66.1773 98.0372 64.0587 98.508 63.5879 98.7434V83.6777V83.4423H63.8233C65.7065 83.2069 67.5897 82.9715 69.473 82.7361C79.5953 82.0298 89.2468 83.2069 89.2468 83.2069H89.4822V98.508C81.0077 97.331 74.181 97.331 69.9438 97.8018ZM70.4146 30.0059C68.296 30.2413 65.9419 30.4767 63.8233 30.7121V26.2395C66.1773 25.7687 68.5314 25.5333 71.1208 25.2979C79.8307 24.5917 86.8927 25.7687 89.7176 26.2395V30.4767C84.3033 29.7705 77.712 29.2997 70.4146 30.0059ZM110.198 103.216C108.785 102.745 107.137 102.274 105.725 101.804V101.097V86.7379L110.433 88.3857L110.198 103.216Z"
        fill="white" />
    <path
        d="M36.9874 107.924V106.982V102.981L15.5658 109.101V127.227L45.4619 118.046V105.099L37.6936 107.453L36.9874 107.924ZM112.787 52.1337L113.258 52.3691V52.8399L113.493 57.5479L132.325 63.6684L132.561 45.7778C129.03 44.6008 107.137 36.8325 101.252 35.4201C96.7796 34.4785 88.3051 32.3599 77.4766 32.3599C73.2394 32.3599 68.0605 32.5953 63.8233 33.3015V46.7194C65.7065 46.484 71.1208 45.7778 77.9474 45.7778C86.1865 45.7778 99.1336 46.9548 112.787 52.1337ZM132.09 94.2707C130.207 85.7962 121.497 78.4987 116.789 75.2031C113.258 72.6137 108.079 70.9658 106.431 70.495L106.196 83.913L113.022 86.0316L113.493 86.267V86.7378L113.022 106.041V106.982L112.081 106.747C97.2504 101.333 84.5387 100.156 76.535 100.156C70.1791 100.156 65.4711 100.862 63.8233 101.097L63.3525 113.809C67.5897 113.338 72.7686 113.103 76.7704 113.103C92.0716 113.103 101.252 116.398 101.488 116.398C107.373 118.517 112.081 119.694 116.553 119.694C120.555 119.694 124.086 118.753 127.617 116.869C133.267 113.809 133.738 101.568 132.09 94.2707ZM30.6316 87.6794C35.3396 87.6794 39.3415 86.7378 39.5769 86.7378C40.0477 86.5024 40.9893 86.267 42.4017 86.0316C46.8743 84.6192 55.1134 82.2652 63.5879 80.8527C67.3543 80.1465 71.827 79.9111 76.535 79.9111C82.4201 79.9111 87.8343 80.3819 89.7176 80.6173V67.4348C86.6573 66.964 82.8909 66.7286 79.3598 66.7286C59.8215 66.7286 38.6353 74.0261 38.3998 74.2615H37.2228V73.0845C37.6936 64.8454 37.4582 53.7815 37.4582 53.5461V52.8399L37.9291 52.6045L45.9327 50.2505V37.0679C22.3925 43.1884 10.8578 57.3125 14.6242 77.5571C16.272 85.7962 24.0403 87.6794 30.6316 87.6794Z"
        fill="#213E96" />
    <path
        d="M92.0716 49.7796V98.7433C95.838 99.4495 101.017 100.627 103.135 101.097V100.391V52.369C99.369 50.9566 94.1902 50.015 92.0716 49.7796ZM92.0716 117.34L91.8361 122.754V123.461H91.13C86.6573 122.99 82.1847 122.519 77.712 122.519C68.0605 122.519 61.7047 123.931 61.4693 123.931L60.5276 124.167V123.225V83.913C58.1736 84.3838 51.8178 86.0316 48.0513 86.9732V126.285V126.756L47.5805 126.992L42.1663 128.639V142.057C57.4674 137.349 70.4145 136.408 78.4182 136.408C83.3617 136.408 86.6573 136.643 88.0697 136.878C88.3051 136.878 88.5405 136.878 88.7759 136.878C89.2467 136.878 89.7175 136.878 90.1883 136.878C93.0132 136.878 96.7796 136.172 99.6044 132.406C102.429 128.404 102.429 121.577 102.194 119.93C99.1336 118.753 93.9548 117.811 92.0716 117.34ZM48.7575 26.9456V27.8872V68.141C52.9948 66.964 59.1152 65.787 60.9984 65.5516L61.2338 24.827V24.1208H61.7047C66.4127 23.1792 71.3561 22.7084 76.2996 22.7084C85.2449 22.7084 91.3653 24.1208 91.6007 24.3562L92.0716 24.5916V25.0624V30.712C96.3088 31.4182 101.017 32.5953 103.135 33.0661C103.135 10.9382 88.0697 10.232 87.3635 10.232C84.3033 9.99664 81.0076 9.76123 77.712 9.76123C59.3506 9.76123 44.9911 14.7047 42.4017 15.6463V28.8288L47.8159 27.4164L48.7575 26.9456Z"
        fill="#FFDD00" />
    <path
        d="M105.254 145.824C103.842 145.824 102.429 147.001 102.429 148.884C102.429 150.532 103.606 151.944 105.254 151.944C106.666 151.944 108.079 150.767 108.079 148.884C108.079 147.001 106.666 145.824 105.254 145.824ZM105.254 151.238C103.842 151.238 103.135 150.061 103.135 148.649C103.135 147.236 104.077 146.059 105.254 146.059C106.431 146.059 107.373 147.001 107.373 148.649C107.373 150.297 106.431 151.238 105.254 151.238ZM106.431 148.178C106.431 147.472 105.96 147.236 105.254 147.236H104.077V150.532H104.548V149.12H105.019L105.725 150.532H106.431L105.489 149.12C106.196 149.12 106.431 148.884 106.431 148.178ZM104.548 148.649V147.707H105.254C105.489 147.707 105.96 147.707 105.96 148.178C105.96 148.649 105.725 148.649 105.254 148.649H104.548Z"
        fill="white" />
</svg>